Coordinates
version=1
nRows=16
nColumns=30
inDegrees=yes

Units are S.I. units (second, meters, Newtons, ...)
Angles are in degrees.

endheader
time	floatyaw	floatroll	floatpitch	floatx	floaty	floatz	pro_sup_l	deviation_l	flexion_l	cmc_flexion_l	cmc_abduction_l	mp_flexion_l	ip_flexion_l	2mcp_flexion_l	2mcp_abduction_l	2pm_flexion_l	2md_flexion_l	3mcp_flexion_l	3mcp_abduction_l	3pm_flexion_l	3md_flexion_l	4mcp_flexion_l	4mcp_abduction_l	4pm_flexion_l	4md_flexion_l	5mcp_flexion_l	5mcp_abduction_l	5pm_flexion_l	5md_flexion_l
-0.495000	3.267846	-2.569086	98.473996	-0.100714	-0.192040	-0.029089	88.087737	1.548868	-1.523987	18.879523	2.036334	-21.660156	-35.374422	35.727739	8.287048	46.959782	32.979156	23.468635	4.710979	45.550021	30.840595	14.922540	-4.745079	58.781917	40.230775	12.718569	-8.446788	57.014411	39.774112
-0.485000	3.267846	-2.569086	98.473996	-0.100300	-0.191815	-0.028864	88.141906	1.603934	-1.514035	18.897165	2.156823	-21.626160	-35.348870	35.588949	8.281831	47.007499	32.993554	23.388285	4.707876	45.560279	30.815951	14.857586	-4.738842	58.746516	40.181111	12.627782	-8.444727	56.936917	39.747107
-0.475000	3.267846	-2.569086	98.473996	-0.099892	-0.191590	-0.028647	88.219943	1.649581	-1.497866	18.922119	2.284919	-21.573537	-35.308879	35.446698	8.278505	47.046099	32.994674	23.300493	4.700956	45.584217	30.781174	14.787845	-4.731594	58.711227	40.118817	12.539783	-8.441711	56.853501	39.708898
-0.465000	3.267846	-2.569086	98.473996	-0.099500	-0.191377	-0.028443	88.315115	1.681720	-1.475171	18.957101	2.414539	-21.506331	-35.260866	35.301872	8.274238	47.069142	32.983159	23.206386	4.690225	45.614057	30.735018	14.716225	-4.725054	58.671973	40.044228	12.456447	-8.432483	56.768348	39.659454
-0.455000	3.267846	-2.569086	98.473996	-0.099128	-0.191189	-0.028255	88.413642	1.700285	-1.443055	18.999448	2.536661	-21.434115	-35.216604	35.158495	8.267357	47.075223	32.964837	23.109387	4.677196	45.641175	30.682230	14.646299	-4.720614	58.629012	39.964753	12.381517	-8.417182	56.688869	39.605380
-0.445000	3.267846	-2.569086	98.473996	-0.098774	-0.191042	-0.028082	88.498279	1.709248	-1.395974	19.040611	2.640866	-21.368840	-35.188690	35.028692	8.257770	47.066818	32.947645	23.019024	4.664412	45.660034	30.633904	14.585264	-4.718744	58.589445	39.894391	12.324885	-8.401280	56.623336	39.558850
-0.435000	3.267846	-2.569086	98.473996	-0.098429	-0.190942	-0.027920	88.552942	1.715442	-1.328210	19.068086	2.717639	-21.320295	-35.184050	34.934197	8.246944	47.047908	32.937581	22.952065	4.654903	45.670685	30.604728	14.546395	-4.718951	58.565706	39.849940	12.303358	-8.393133	56.579349	39.534552
-0.425000	3.267846	-2.569086	98.473996	-0.098088	-0.190890	-0.027768	88.566852	1.726584	-1.237917	19.069242	2.761808	-21.292244	-35.199140	34.901332	8.237275	47.022264	32.936210	22.929100	4.651680	45.678151	30.608016	14.548016	-4.720340	58.570061	39.845620	12.335737	-8.400093	56.564533	39.545740
-0.415000	3.267846	-2.569086	98.473996	-0.097747	-0.190878	-0.027625	88.537083	1.748894	-1.130310	19.035938	2.776310	-21.281316	-35.220688	34.950437	8.230821	46.993402	32.941090	22.967001	4.657013	45.689673	30.651003	14.607393	-4.722293	58.608395	39.888728	12.434242	-8.424719	56.588474	39.600382
-0.405000	3.267846	-2.569086	98.473996	-0.097413	-0.190892	-0.027491	88.468882	1.784937	-1.017832	18.968228	2.773952	-21.279473	-35.232881	35.084874	8.227885	46.965742	32.948527	23.070305	4.671394	45.712413	30.732841	14.731444	-4.724731	58.677387	39.977971	12.597609	-8.462789	56.662694	39.698047
-0.395000	3.267846	-2.569086	98.473996	-0.097096	-0.190915	-0.027366	88.373779	1.832474	-0.916741	18.875283	2.774820	-21.278604	-35.227195	35.285895	8.226402	46.945403	32.956618	23.226036	4.692635	45.752809	30.846019	14.909430	-4.727824	58.766686	40.104392	12.810928	-8.504198	56.795894	39.828190
-0.385000	3.267846	-2.569086	98.473996	-0.096806	-0.190933	-0.027250	88.266304	1.884940	-0.841638	18.772684	2.799395	-21.274232	-35.208489	35.516931	8.222861	46.939278	32.966627	23.405743	4.715867	45.816374	30.979972	15.113082	-4.731596	58.863994	40.253897	13.053164	-8.536645	56.985548	39.970901
-0.375000	3.267846	-2.569086	98.473996	-0.096551	-0.190934	-0.027139	88.160722	1.933397	-0.800296	18.677198	2.860690	-21.266001	-35.193247	35.735941	8.214467	46.952459	32.982087	23.575029	4.734855	45.906180	31.124812	15.305633	-4.735866	58.959349	40.410727	13.308001	-8.550574	57.211498	40.100980
-0.365000	3.267846	-2.569086	98.473996	-0.096332	-0.190911	-0.027027	88.068911	1.969126	-0.790699	18.601554	2.959888	-21.255163	-35.201234	35.909953	8.201217	46.985580	33.006573	23.706282	4.744236	46.020360	31.273511	15.455854	-4.740584	59.046588	40.561289	13.571126	-8.543131	57.437687	40.194689
-0.355000	3.267846	-2.569086	98.473996	-0.096138	-0.190856	-0.026903	87.999815	1.985970	-0.800818	18.551429	3.087819	-21.241558	-35.245725	36.024416	8.186361	47.033931	33.041729	23.788180	4.741693	46.150651	31.421962	15.550068	-4.746278	59.122515	40.697063	13.849270	-8.519205	57.623128	40.236609
-0.345000	3.267846	-2.569086	98.473996	-0.095947	-0.190757	-0.026758	87.960124	1.981879	-0.810855	18.525332	3.230890	-21.222611	-35.327353	36.082661	8.174439	47.088809	33.086504	23.827565	4.728963	46.283492	31.567288	15.596196	-4.754147	59.185240	40.814879	14.151829	-8.488884	57.736423	40.223398
